<svg xmlns="http://www.w3.org/2000/svg" width="765" viewBox="0 0 765 187.5" height="187.5" version="1.0"><defs><clipPath id="a"><path d="M 1.015625 0 L 278.042969 0 L 278.042969 187 L 1.015625 187 Z M 1.015625 0"/></clipPath><clipPath id="b"><path d="M 468 0 L 720 0 L 720 165 L 468 165 Z M 468 0"/></clipPath><clipPath id="c"><path d="M 544.511719 -56.847656 L 728.539062 10.535156 L 648.046875 230.386719 L 464.015625 163.007812 Z M 544.511719 -56.847656"/></clipPath><clipPath id="d"><path d="M 544.511719 -56.847656 L 728.539062 10.535156 L 648.046875 230.386719 L 464.015625 163.007812 Z M 544.511719 -56.847656"/></clipPath></defs><g clip-path="url(#a)"><path fill="#CFC0C1" d="M 278.042969 49.480469 C 274.179688 63.136719 263.496094 71.328125 252.8125 79.523438 C 237.128906 92.042969 219.171875 95.230469 199.851562 92.269531 C 189.851562 90.675781 179.851562 89.996094 169.621094 90.222656 C 161.441406 90.449219 153.257812 89.765625 145.074219 89.539062 C 144.847656 94.089844 144.847656 99.554688 144.164062 104.789062 C 143.484375 112.984375 138.027344 120.039062 130.527344 123 C 116.664062 129.144531 103.25 136.425781 90.523438 144.847656 C 78.703125 152.589844 65.292969 157.824219 51.429688 160.097656 C 49.609375 160.554688 48.246094 161.464844 47.109375 162.832031 C 33.925781 180.355469 21.195312 198.109375 7.558594 215.183594 C -0.851562 224.96875 -9.714844 234.527344 -19.035156 243.40625 C -22.898438 247.273438 -26.082031 246.59375 -28.125 241.355469 C -31.992188 232.023438 -33.125 221.78125 -31.308594 211.996094 C -30.171875 206.53125 -26.988281 201.753906 -22.445312 198.339844 C -19.488281 196.0625 -16.308594 194.011719 -13.351562 191.964844 C -4.03125 186.046875 5.285156 180.355469 14.378906 174.210938 C 23.925781 167.15625 34.835938 162.148438 46.425781 159.417969 C 47.335938 159.1875 48.246094 158.734375 48.925781 157.824219 C 58.929688 146.441406 68.929688 134.605469 78.703125 122.542969 C 81.203125 119.355469 83.476562 115.941406 85.066406 112.074219 C 88.25 105.015625 86.429688 96.59375 80.523438 91.816406 C 74.613281 86.351562 67.339844 84.988281 59.835938 84.53125 C 59.15625 84.757812 58.472656 84.988281 58.019531 85.667969 C 57.566406 86.351562 57.109375 87.261719 56.65625 87.945312 C 51.65625 98.414062 42.109375 105.925781 30.742188 108.203125 C 21.425781 110.480469 12.105469 113.4375 2.785156 115.941406 C -1.761719 117.308594 -6.53125 115.941406 -9.714844 112.527344 C -11.988281 110.023438 -11.988281 106.15625 -10.167969 103.421875 C -7.898438 99.554688 -4.261719 96.59375 0.0585938 95.230469 C 7.105469 92.496094 14.378906 90.222656 21.425781 88.171875 C 32.5625 84.757812 44.152344 82.9375 55.746094 82.484375 C 56.65625 82.253906 57.566406 81.574219 57.792969 80.664062 C 60.519531 72.921875 61.65625 64.5 61.429688 56.308594 C 61.429688 52.210938 61.203125 47.886719 60.746094 43.789062 C 59.15625 30.816406 65.066406 21.253906 74.839844 13.742188 C 83.023438 7.597656 93.023438 4.183594 103.25 3.5 C 117.34375 2.136719 131.4375 1.453125 145.300781 0.542969 C 145.984375 0.542969 146.664062 0.316406 147.347656 0.316406 L 151.210938 0.316406 C 156.210938 0.542969 160.984375 0.996094 165.757812 1.226562 C 187.351562 1.90625 208.261719 8.28125 229.628906 11.011719 C 233.492188 11.695312 237.355469 13.289062 240.765625 15.335938 C 248.949219 19.890625 256.90625 24.667969 265.085938 29.449219 C 270.996094 33.089844 275.996094 37.644531 277.816406 44.699219 Z M 143.9375 88.855469 C 140.300781 87.71875 136.664062 86.351562 133.027344 84.757812 C 124.390625 79.980469 115.527344 75.199219 107.34375 69.964844 C 104.160156 67.6875 101.207031 65.183594 98.707031 62.226562 C 96.886719 60.40625 96.207031 57.671875 97.113281 55.167969 C 98.933594 48.570312 105.75 44.472656 112.570312 46.292969 C 113.023438 46.519531 113.480469 46.519531 113.933594 46.746094 C 130.300781 54.488281 141.890625 66.550781 144.621094 85.214844 C 144.847656 86.808594 145.527344 87.492188 146.894531 87.71875 C 150.300781 88.402344 153.484375 88.855469 156.894531 88.855469 C 173.257812 88.402344 189.625 89.3125 205.761719 91.359375 C 217.808594 93.410156 230.082031 91.359375 240.765625 85.441406 C 249.859375 80.433594 258.269531 74.0625 265.769531 66.777344 C 269.859375 62.910156 273.042969 58.128906 275.089844 52.894531 C 277.589844 47.65625 276.453125 41.511719 272.359375 37.414062 C 269.859375 34.683594 267.132812 32.40625 263.949219 30.585938 C 256.222656 25.808594 248.039062 21.253906 240.3125 16.703125 C 235.992188 14.652344 231.21875 13.289062 226.445312 12.832031 C 210.535156 10.101562 194.851562 6.234375 178.941406 4.183594 C 151.664062 0.996094 124.164062 1.679688 97.113281 6.460938 C 86.429688 8.054688 76.886719 13.289062 69.613281 21.253906 C 64.609375 26.488281 61.882812 33.546875 62.339844 40.601562 C 62.566406 43.789062 62.792969 46.746094 62.792969 49.933594 C 63.246094 61.085938 63.246094 72.011719 58.929688 82.710938 L 64.382812 83.394531 C 69.839844 83.847656 74.839844 85.898438 79.15625 89.082031 C 87.566406 95.457031 90.296875 105.015625 85.523438 114.347656 C 83.476562 118.21875 81.203125 121.859375 78.25 125.273438 C 70.292969 135.746094 61.429688 145.988281 52.792969 156.230469 C 52.109375 156.914062 51.65625 157.59375 50.746094 158.734375 C 63.246094 156.914062 75.066406 152.589844 85.976562 145.988281 C 100.523438 136.425781 115.753906 128.234375 131.4375 121.175781 C 137.117188 118.902344 141.210938 113.667969 142.121094 107.519531 C 143.257812 101.375 143.484375 95 143.9375 88.855469 Z M 45.972656 161.691406 L 43.019531 162.375 C 34.609375 164.652344 26.652344 168.292969 19.378906 173.300781 C 8.242188 180.585938 -2.894531 187.640625 -14.035156 194.925781 C -16.761719 196.515625 -19.488281 198.566406 -21.988281 200.613281 C -27.445312 204.9375 -30.398438 211.539062 -30.171875 218.367188 C -29.945312 223.601562 -29.488281 228.609375 -28.582031 233.847656 C -28.125 236.804688 -27.21875 239.535156 -25.851562 242.269531 C -24.488281 245 -23.125 245.226562 -20.625 243.40625 C -19.488281 242.496094 -18.351562 241.585938 -17.441406 240.445312 C -5.167969 228.609375 6.195312 215.863281 16.425781 201.980469 C 25.742188 188.324219 35.746094 175.347656 45.972656 161.691406 Z M 56.65625 84.304688 C 54.382812 84.304688 52.335938 84.304688 50.0625 84.757812 C 39.609375 86.582031 29.152344 88.402344 18.925781 90.90625 C 13.015625 92.496094 7.105469 94.320312 1.421875 96.59375 C -2.441406 97.960938 -6.078125 100.691406 -8.351562 104.105469 C -10.398438 106.609375 -10.167969 110.25 -7.667969 112.300781 C -7.441406 112.527344 -6.988281 112.753906 -6.53125 112.984375 C -3.578125 115.03125 0.285156 115.488281 3.46875 114.121094 C 9.832031 111.84375 16.425781 110.023438 23.015625 108.203125 C 27.105469 107.066406 31.199219 106.15625 35.289062 105.015625 C 45.746094 102.058594 52.109375 94.320312 56.65625 84.304688 Z M 143.027344 86.808594 C 142.800781 84.988281 142.800781 83.847656 142.574219 82.9375 C 139.390625 66.777344 128.9375 56.308594 114.84375 49.023438 C 108.480469 45.609375 104.617188 46.746094 100.296875 52.664062 C 98.023438 55.851562 97.570312 58.355469 100.296875 61.316406 C 102.570312 64.046875 105.296875 66.550781 108.253906 68.597656 C 116.664062 73.832031 125.300781 78.613281 133.9375 83.394531 C 136.890625 84.757812 139.847656 85.898438 143.027344 86.808594 Z M 143.027344 86.808594"/></g><g clip-path="url(#b)"><g clip-path="url(#c)"><g clip-path="url(#d)"><path fill="#CFC0C1" d="M 697.046875 32.167969 C 700.097656 37.308594 703.046875 42.230469 706.15625 47.214844 C 709.835938 53.136719 710.269531 60.433594 707.585938 66.769531 C 705.933594 71.285156 703.472656 75.511719 700.484375 79.175781 C 694.335938 86.988281 687.074219 93.84375 679.019531 99.863281 C 670.53125 106.085938 662.402344 112.808594 653.398438 117.933594 C 641.136719 124.972656 628.363281 130.90625 615.75 136.902344 C 611.625 138.6875 607.355469 139.871094 602.898438 140.066406 C 595.652344 140.890625 589.125 135.757812 588.25 128.664062 C 587.90625 125.609375 588.585938 122.75 590.132812 120.023438 C 592.019531 116.871094 594.007812 113.9375 596.054688 110.84375 C 596.054688 110.84375 595.730469 110.726562 595.730469 110.726562 C 582.207031 112.726562 568.738281 114.566406 555.375 116.628906 C 554.171875 116.917969 553.128906 117.269531 551.96875 117.945312 C 535.753906 128.292969 519.640625 138.863281 503.261719 149.152344 C 499.722656 151.332031 496.082031 153.292969 492.496094 155.09375 C 486.652344 158.078125 480.867188 160.902344 474.921875 163.664062 C 471.621094 165.199219 470.007812 164.609375 469.136719 160.996094 C 467.773438 155.738281 468.402344 151.027344 472.371094 147.175781 C 473.886719 145.535156 475.722656 144.011719 477.660156 142.707031 C 488.28125 136.164062 498.941406 130.003906 510.992188 126.546875 C 524.625 122.753906 538.300781 119.34375 552.035156 115.769531 C 552.636719 115.625 553.296875 115.320312 553.957031 115.011719 C 565.109375 107.015625 576.523438 99.300781 587.570312 91.085938 C 597.839844 83.5 604.613281 72.988281 609.894531 61.5625 C 614.464844 52.070312 617.042969 42.035156 619.941406 32.117188 C 623.550781 20.265625 627.382812 8.308594 630.992188 -3.546875 C 631.640625 -5.320312 632.453125 -7.039062 633.261719 -8.753906 C 635.535156 -13.960938 639.675781 -16.289062 645.21875 -16.453125 C 650.761719 -16.621094 656.316406 -15.320312 661.296875 -12.945312 C 667.507812 -9.941406 673.539062 -6.453125 679.808594 -3.609375 C 687.789062 0.046875 696.007812 3.054688 704.109375 6.386719 C 704.589844 6.566406 705.074219 6.742188 705.617188 6.757812 C 712.847656 6.476562 718.933594 11.816406 719.75 19.070312 C 720.03125 24.296875 715.511719 30.144531 709.554688 31.441406 C 706.285156 31.890625 702.75 32.058594 699.4375 32.125 C 698.613281 32.375 697.75 32.242188 697.046875 32.167969 Z M 557.226562 114.5625 L 557.433594 115.003906 C 559.238281 114.566406 560.984375 114.289062 562.890625 114.074219 C 574.007812 112.652344 585.1875 111.074219 596.363281 109.492188 C 597.289062 109.464844 598.167969 109.054688 598.949219 108.425781 C 607.125 100.074219 615.300781 91.722656 623.3125 83.308594 C 631.046875 75.160156 638.882812 67.234375 648.402344 61.203125 C 653.941406 57.558594 660.148438 55.074219 666.589844 53.953125 C 669.597656 53.226562 672.675781 53.804688 675.238281 55.292969 C 679.601562 58.351562 680.71875 62.789062 680.191406 67.71875 C 679.515625 74.058594 675.996094 79.175781 671.527344 83.394531 C 659.441406 95.441406 645.007812 102.417969 628.679688 105.585938 C 619.230469 107.433594 609.695312 108.519531 600.148438 110.144531 C 599.222656 110.171875 598.34375 110.582031 597.664062 111.433594 C 595.015625 114.671875 592.691406 118.03125 590.6875 121.503906 C 587.535156 127.121094 589.496094 134.246094 595.164062 137.234375 C 596.65625 138.148438 598.488281 138.636719 600.277344 138.742188 C 603.914062 138.792969 607.566406 138.300781 610.914062 137.144531 C 614.417969 136.050781 617.824219 134.734375 621.027344 132.980469 C 630.613281 128.253906 640.042969 123.472656 649.527344 118.527344 C 659.835938 113.335938 668.636719 105.761719 678.070312 98.964844 C 685.621094 93.3125 692.386719 86.824219 698.300781 79.65625 C 702.460938 74.773438 705.453125 69.097656 707.097656 63.113281 C 708.355469 59.179688 708.042969 55.042969 706.308594 51.292969 C 703.507812 44.964844 699.988281 39.101562 695.75 33.707031 C 695.078125 32.542969 693.6875 31.851562 692.382812 31.921875 C 682.253906 31.140625 672.332031 28.789062 662.882812 25.148438 C 659.21875 24.171875 656.191406 21.964844 653.835938 18.910156 C 651.660156 15.367188 652.742188 11.917969 656.953125 10.898438 C 659.195312 10.257812 661.425781 10.160156 663.582031 10.765625 C 668.210938 12.09375 672.882812 13.804688 677.21875 15.941406 C 683.910156 19.121094 689.132812 24.328125 693.972656 29.578125 C 694.5 30.136719 695.128906 30.914062 695.671875 30.929688 C 699.953125 31.21875 704.191406 31.121094 708.546875 30.703125 C 713.785156 29.875 717.652344 25.804688 718.296875 20.546875 C 718.644531 16.101562 714.683594 10.441406 710.011719 8.730469 C 709.367188 8.496094 708.824219 8.480469 708.0625 8.566406 C 707.300781 8.652344 706.476562 8.902344 705.832031 8.667969 C 696.765625 4.980469 687.578125 1.617188 678.632812 -2.390625 C 672.304688 -5.074219 666.492188 -8.664062 660.222656 -11.511719 C 655.140625 -14.101562 649.367188 -15.300781 643.703125 -14.8125 C 639.628906 -14.660156 636.191406 -12.257812 634.449219 -8.503906 C 633.300781 -6.359375 632.3125 -4.160156 631.644531 -1.84375 C 628.054688 9.46875 624.621094 20.839844 621.1875 32.207031 C 617.949219 42.550781 615.414062 52.96875 610.726562 62.78125 C 605.226562 74.308594 598.132812 84.703125 587.90625 92.671875 C 581.671875 97.710938 575.238281 102.308594 568.804688 106.90625 C 565.085938 109.570312 561.105469 111.957031 557.226562 114.5625 Z M 600.578125 108.472656 L 600.78125 108.914062 C 609.507812 107.535156 618.238281 106.15625 626.964844 104.777344 C 637.941406 102.757812 648.378906 98.707031 657.894531 92.675781 C 665.253906 88.050781 671.984375 82.648438 676.34375 74.726562 C 678.921875 70.183594 679.832031 65.207031 677.644531 60.199219 C 676.539062 57.230469 673.773438 55.304688 670.738281 55.105469 C 666.617188 54.878906 662.304688 55.679688 658.558594 57.417969 C 649.546875 61.074219 641.511719 66.550781 634.792969 73.421875 C 623.382812 84.617188 612.339844 96.3125 601.253906 107.625 C 600.972656 107.886719 600.695312 108.152344 600.578125 108.472656 Z M 549.019531 118.511719 L 548.816406 118.070312 C 548.214844 118.214844 547.453125 118.300781 546.851562 118.449219 C 535.902344 121.394531 525.015625 124.179688 514.230469 127.183594 C 509.136719 128.613281 504.089844 130.425781 499.242188 132.675781 C 494.015625 134.972656 488.894531 137.488281 483.972656 140.445312 C 480.050781 142.667969 476.496094 145.390625 473.144531 148.558594 C 469.351562 151.925781 468.945312 156.535156 470.324219 161.25 C 471.066406 163.714844 471.710938 163.953125 474.132812 162.828125 C 479.699219 160.105469 485.261719 157.386719 490.667969 154.605469 C 496.070312 151.828125 501.09375 149.089844 506.070312 145.972656 C 516.367188 139.3125 526.503906 132.59375 536.800781 125.929688 C 540.679688 123.324219 544.820312 121 549.019531 118.511719 Z M 693.238281 30.589844 C 685.753906 21.078125 675.039062 14.410156 663.226562 11.730469 C 661.175781 11.347656 659.105469 11.503906 657.242188 12.101562 C 655.335938 12.320312 654.082031 14.242188 654.519531 16.046875 C 654.664062 16.648438 654.867188 17.089844 655.070312 17.53125 C 655.785156 19.074219 657.160156 20.308594 658.492188 21.164062 C 662.886719 23.136719 667.339844 24.949219 672.074219 26.5 C 678.738281 28.757812 685.921875 30.105469 693.238281 30.589844 Z M 693.238281 30.589844"/></g></g></g></svg>