<svg xmlns="http://www.w3.org/2000/svg" width="930" viewBox="0 0 930 142.5" height="142.5" version="1.0"><defs><clipPath id="a"><path d="M 2 3 L 928.375 3 L 928.375 90 L 2 90 Z M 2 3"/></clipPath><clipPath id="b"><path d="M 8.175781 -45.402344 L 933.644531 3.285156 L 927.085938 127.921875 L 1.621094 79.238281 Z M 8.175781 -45.402344"/></clipPath><clipPath id="c"><path d="M 8.175781 -45.402344 L 933.644531 3.285156 L 927.085938 127.921875 L 1.621094 79.238281 Z M 8.175781 -45.402344"/></clipPath></defs><g clip-path="url(#a)"><g clip-path="url(#b)"><g clip-path="url(#c)"><path fill="#CFC0C1" d="M 2.453125 78.496094 C 2.105469 77.695312 2.164062 76.523438 2.597656 75.761719 C 3.417969 75.019531 4.242188 74.28125 5.0625 73.539062 L 7.507812 71.710938 L 10.320312 70.289062 L 15.191406 67.019531 C 18.847656 64.46875 22.503906 61.921875 26.160156 59.371094 C 33.453125 54.660156 41.136719 49.972656 48.800781 45.671875 C 52.046875 43.492188 55.679688 41.332031 58.925781 39.152344 C 62.171875 36.972656 65.417969 34.792969 68.644531 33.003906 C 71.871094 31.214844 75.507812 29.054688 79.121094 27.285156 C 82.738281 25.515625 86.742188 23.769531 90.359375 22 C 93.972656 20.230469 97.179688 18.832031 100.753906 17.84375 C 104.328125 16.859375 108.335938 15.109375 111.910156 14.121094 C 113.492188 13.8125 115.484375 13.136719 117.066406 12.828125 C 118.648438 12.519531 120.621094 12.230469 122.589844 11.941406 C 126.535156 11.367188 130.460938 11.179688 134.382812 10.996094 L 133.992188 10.972656 L 135.945312 11.078125 L 139.457031 11.261719 L 142.167969 11.796875 L 145.269531 12.351562 L 146.421875 12.804688 L 147.960938 13.277344 C 149.113281 13.730469 150.285156 13.789062 151.433594 14.242188 C 152.972656 14.714844 154.496094 15.578125 156.035156 16.050781 C 157.554688 16.914062 158.683594 17.757812 159.816406 18.601562 C 160.554688 19.425781 161.292969 20.246094 161.644531 21.046875 C 162.011719 21.460938 161.972656 22.242188 162.34375 22.652344 C 162.320312 23.042969 162.300781 23.433594 162.671875 23.84375 C 162.648438 24.234375 162.628906 24.625 162.589844 25.410156 C 162.507812 26.972656 162.445312 28.144531 161.972656 29.6875 C 161.929688 30.46875 161.5 31.226562 161.457031 32.007812 C 160.472656 35.875 159.074219 40.113281 158.089844 43.976562 C 158.089844 43.976562 158.089844 43.976562 158.109375 43.585938 C 158.066406 44.367188 157.636719 45.128906 157.597656 45.910156 C 157.554688 46.691406 157.511719 47.472656 157.082031 48.234375 L 156.980469 50.1875 L 156.917969 51.359375 C 156.875 52.140625 156.835938 52.921875 156.792969 53.703125 C 156.753906 54.488281 157.0625 56.070312 157 57.242188 C 156.957031 58.023438 157.308594 58.824219 157.675781 59.238281 C 158.027344 60.039062 157.984375 60.820312 158.335938 61.621094 L 158.683594 62.425781 C 159.035156 63.226562 159.402344 63.636719 159.753906 64.4375 C 160.121094 64.851562 160.472656 65.652344 160.839844 66.0625 C 161.582031 66.886719 162.320312 67.707031 163.058594 68.53125 L 165.667969 71.019531 C 166.40625 71.839844 167.539062 72.683594 168.296875 73.117188 L 170.558594 74.800781 C 171.316406 75.234375 172.449219 76.078125 173.207031 76.507812 C 173.96875 76.941406 175.097656 77.785156 175.859375 78.214844 C 176.617188 78.648438 176.617188 78.648438 177.378906 79.078125 L 178.507812 79.921875 L 180.417969 80.804688 L 182.71875 81.710938 C 183.871094 82.164062 185.410156 82.636719 186.558594 83.089844 L 189.273438 83.625 C 189.664062 83.644531 190.441406 83.683594 190.832031 83.707031 L 192.394531 83.789062 L 195.125 83.929688 C 195.90625 83.972656 196.6875 84.011719 197.859375 84.074219 C 199.8125 84.175781 201.761719 84.28125 203.714844 84.382812 C 208.007812 84.609375 211.929688 84.421875 216.222656 84.648438 C 218.957031 84.792969 221.320312 84.527344 224.070312 84.277344 C 225.632812 84.359375 227.214844 84.050781 228.796875 83.742188 L 232.742188 83.167969 L 237.878906 82.261719 L 244.574219 81.4375 C 248.539062 80.472656 252.894531 79.527344 256.859375 78.558594 L 262.425781 76.894531 C 264.007812 76.585938 265.609375 75.886719 267.601562 75.207031 C 269.597656 74.527344 270.808594 73.808594 272.390625 73.5 L 277.175781 71.792969 L 281.59375 69.671875 L 286.8125 67.207031 L 292.050781 64.347656 L 296.898438 61.46875 C 298.109375 60.746094 299.734375 59.65625 300.945312 58.9375 C 302.15625 58.21875 303.78125 57.128906 304.992188 56.40625 C 306.203125 55.6875 307.4375 54.578125 308.648438 53.859375 L 311.914062 51.285156 C 315.59375 48.347656 319.269531 45.40625 322.96875 42.074219 C 326.664062 38.742188 329.910156 36.5625 333.566406 34.011719 L 339.28125 29.609375 C 341.703125 28.171875 343.757812 26.320312 346.183594 24.878906 C 347.003906 24.140625 347.804688 23.789062 349.015625 23.070312 C 350.230469 22.351562 350.25 21.960938 351.050781 21.609375 L 354.6875 19.449219 C 355.898438 18.730469 357.109375 18.011719 358.324219 17.289062 L 361.136719 15.871094 L 363.953125 14.453125 L 367.566406 12.683594 C 368.78125 11.964844 370.363281 11.65625 371.574219 10.933594 L 373.585938 9.867188 L 376.378906 8.835938 L 380.367188 7.480469 L 381.578125 6.761719 L 384.351562 6.121094 C 385.152344 5.773438 385.933594 5.8125 387.125 5.484375 C 388.316406 5.15625 389.507812 4.828125 391.070312 4.910156 C 392.628906 4.992188 393.820312 4.660156 395.402344 4.351562 C 396.984375 4.042969 397.375 4.066406 398.546875 4.125 L 402.449219 4.332031 L 404.011719 4.414062 L 406.351562 4.539062 C 407.523438 4.597656 408.304688 4.640625 409.457031 5.09375 L 411.015625 5.175781 C 411.40625 5.195312 412.1875 5.234375 412.558594 5.648438 L 414.878906 6.160156 C 416.050781 6.222656 417.199219 6.675781 417.960938 7.105469 C 419.890625 7.601562 421.433594 8.074219 423.34375 8.957031 C 425.253906 9.839844 426.773438 10.703125 428.292969 11.570312 L 429.792969 12.824219 C 430.53125 13.644531 431.660156 14.488281 432.402344 15.3125 C 433.511719 16.542969 434.621094 17.777344 435.320312 19.382812 C 435.667969 20.183594 436.015625 20.988281 436.367188 21.789062 C 436.714844 22.589844 437.066406 23.390625 437.394531 24.585938 C 437.722656 25.777344 438.03125 27.359375 437.96875 28.535156 C 438.234375 30.898438 438.113281 33.242188 437.617188 35.175781 C 437.535156 36.738281 437.0625 38.28125 436.980469 39.84375 C 436.507812 41.386719 436.40625 43.339844 435.933594 44.882812 C 435.460938 46.425781 435.339844 48.769531 434.867188 50.3125 C 434.394531 51.851562 434.289062 53.808594 434.207031 55.371094 L 434.0625 58.105469 C 434.042969 58.496094 434.023438 58.886719 434.023438 58.886719 L 433.859375 62.011719 C 433.796875 63.183594 434.125 64.375 434.0625 65.550781 C 434.003906 66.722656 434.351562 67.523438 434.699219 68.324219 L 435.378906 70.320312 C 435.707031 71.511719 436.054688 72.3125 436.386719 73.507812 C 436.753906 73.917969 437.105469 74.71875 437.082031 75.109375 C 437.433594 75.914062 437.800781 76.324219 438.542969 77.148438 C 438.910156 77.558594 439.28125 77.96875 439.652344 78.378906 L 441.910156 80.066406 L 441.519531 80.046875 C 442.28125 80.476562 443.039062 80.910156 443.800781 81.339844 C 444.953125 81.792969 446.101562 82.246094 447.253906 82.699219 C 449.574219 83.210938 451.523438 83.316406 453.847656 83.828125 L 459.679688 84.527344 L 466.316406 84.875 L 472.171875 85.183594 L 478.414062 85.511719 L 491.707031 85.820312 C 496 86.046875 500.316406 85.882812 504.628906 85.71875 C 506.972656 85.839844 509.332031 85.574219 511.695312 85.304688 C 512.867188 85.367188 514.449219 85.058594 515.621094 85.121094 L 519.953125 84.5625 L 523.898438 83.988281 L 530.226562 82.753906 L 534.601562 81.417969 L 539.777344 79.730469 C 540.578125 79.378906 541.769531 79.050781 542.570312 78.703125 L 545.367188 77.671875 L 550.972656 75.226562 C 551.777344 74.875 552.578125 74.527344 553.378906 74.175781 L 556.582031 72.777344 L 556.191406 72.757812 C 560.199219 71.007812 564.226562 68.871094 568.621094 67.144531 C 573.015625 65.414062 577.476562 62.515625 581.890625 60.398438 C 586.308594 58.277344 590.355469 55.75 594.792969 53.238281 C 599.230469 50.730469 602.867188 48.570312 606.914062 46.039062 L 619.464844 38.082031 C 623.511719 35.550781 627.539062 33.414062 631.585938 30.882812 C 633.601562 29.8125 635.613281 28.746094 637.234375 27.652344 C 638.859375 26.5625 641.671875 25.144531 643.6875 24.074219 C 645.699219 23.007812 647.714844 21.9375 649.726562 20.867188 L 652.542969 19.449219 L 656.546875 17.699219 C 657.347656 17.351562 658.148438 17 658.949219 16.652344 C 659.753906 16.300781 660.945312 15.972656 661.746094 15.621094 L 665.730469 14.265625 C 666.53125 13.914062 667.722656 13.585938 668.503906 13.628906 L 671.667969 13.011719 L 676.023438 12.0625 L 678.382812 11.796875 L 680.746094 11.527344 L 682.328125 11.21875 L 686.664062 10.664062 C 689.027344 10.398438 691.367188 10.519531 693.320312 10.621094 C 696.441406 10.785156 699.566406 10.953125 702.667969 11.507812 C 706.160156 12.082031 709.242188 13.027344 712.300781 14.363281 C 714.210938 15.25 716.121094 16.132812 718.03125 17.015625 C 719.164062 17.859375 720.3125 18.3125 721.441406 19.15625 C 722.574219 19.996094 722.960938 20.019531 723.703125 20.839844 C 725.960938 22.527344 727.8125 24.582031 729.660156 26.640625 C 731.507812 28.695312 732.945312 31.121094 734.382812 33.546875 C 734.734375 34.351562 735.082031 35.152344 735.433594 35.953125 C 735.78125 36.757812 736.152344 37.167969 736.109375 37.949219 L 737.15625 40.355469 C 737.527344 40.765625 737.484375 41.546875 737.835938 42.351562 C 738.492188 44.734375 739.128906 47.511719 739.785156 49.898438 C 740.402344 53.0625 741.019531 56.230469 741.265625 58.984375 C 741.574219 60.570312 741.902344 61.761719 742.210938 63.34375 C 742.558594 64.148438 742.519531 64.929688 742.476562 65.710938 C 742.4375 66.492188 742.785156 67.292969 743.136719 68.09375 C 743.484375 68.898438 743.792969 70.480469 744.511719 71.695312 C 744.859375 72.496094 745.210938 73.296875 745.578125 73.710938 C 745.929688 74.511719 746.296875 74.921875 747.039062 75.746094 L 746.648438 75.726562 C 746.996094 76.527344 747.757812 76.957031 748.125 77.371094 L 748.867188 78.191406 C 749.625 78.625 749.996094 79.035156 750.753906 79.46875 L 751.90625 79.917969 C 752.667969 80.351562 753.445312 80.390625 754.226562 80.433594 L 753.835938 80.414062 L 756.179688 80.535156 C 758.519531 80.660156 760.863281 80.78125 763.59375 80.925781 C 766.328125 81.070312 767.890625 81.152344 770.25 80.882812 L 776.515625 80.820312 C 778.878906 80.554688 781.222656 80.679688 783.582031 80.410156 L 788.308594 79.875 L 791.0625 79.628906 L 798.929688 78.867188 L 804.457031 77.980469 L 806.816406 77.714844 L 809.199219 77.054688 C 811.171875 76.769531 812.753906 76.460938 814.746094 75.78125 L 821.09375 74.15625 L 827.464844 72.140625 L 827.855469 72.160156 L 829.847656 71.480469 L 833.050781 70.082031 L 838.660156 67.636719 L 839.851562 67.308594 L 842.253906 66.257812 L 845.070312 64.839844 L 848.707031 62.679688 C 849.507812 62.328125 850.308594 61.980469 851.128906 61.238281 L 857.582031 57.660156 L 864.050781 53.691406 C 864.875 52.949219 865.675781 52.601562 866.886719 51.882812 L 870.953125 48.960938 C 871.777344 48.222656 872.988281 47.5 873.808594 46.761719 L 877.464844 44.210938 C 878.679688 43.492188 879.5 42.75 880.734375 41.640625 L 883.980469 39.460938 C 886.035156 37.609375 888.457031 36.167969 890.511719 34.316406 L 897.476562 28.414062 L 911.816406 16.242188 L 918.390625 10.316406 L 921.65625 7.746094 L 924.101562 5.917969 C 925.3125 5.195312 926.523438 4.476562 927.738281 3.757812 C 928.148438 3.386719 928.949219 3.035156 929.730469 3.078125 L 930.121094 3.097656 L 931.289062 3.160156 C 931.679688 3.179688 932.070312 3.203125 932.050781 3.59375 C 932.421875 4.003906 932.8125 4.023438 932.789062 4.414062 C 933.140625 5.214844 933.097656 5.996094 933.058594 6.777344 C 933.035156 7.171875 933.015625 7.5625 932.996094 7.953125 C 932.933594 9.125 932.113281 9.863281 930.941406 9.800781 C 929.769531 9.742188 929.03125 8.917969 929.09375 7.746094 C 929.09375 7.746094 929.113281 7.355469 929.113281 7.355469 L 928.3125 7.703125 C 927.101562 8.425781 925.476562 9.515625 924.246094 10.625 L 921.800781 12.457031 C 914.035156 18.707031 906.660156 24.980469 899.261719 31.644531 C 897.621094 33.125 895.585938 34.585938 893.941406 36.066406 C 892.300781 37.546875 889.855469 39.375 887.820312 40.835938 C 884.144531 43.777344 880.488281 46.328125 876.828125 48.878906 C 875.1875 50.359375 873.171875 51.429688 871.140625 52.890625 L 865.058594 56.878906 L 861.011719 59.410156 L 859.386719 60.5 L 855.753906 62.65625 L 852.527344 64.449219 L 848.5 66.585938 L 846.078125 68.027344 C 843.671875 69.074219 841.640625 70.535156 839.234375 71.585938 C 836.832031 72.632812 835.230469 73.332031 833.214844 74.402344 L 828.820312 76.128906 C 827.628906 76.457031 826.4375 76.789062 825.636719 77.136719 L 822.0625 78.125 C 821.261719 78.472656 820.089844 78.414062 819.289062 78.761719 L 815.324219 79.730469 L 812.550781 80.367188 C 810.1875 80.632812 808.195312 81.3125 805.832031 81.582031 L 801.085938 82.507812 L 799.113281 82.792969 L 791.226562 83.945312 L 788.472656 84.195312 L 783.75 84.730469 C 781.386719 84.996094 779.042969 84.875 776.679688 85.140625 C 774.320312 85.410156 772.367188 85.304688 770.027344 85.183594 L 766.902344 85.019531 L 764.949219 84.914062 C 763.78125 84.855469 762.609375 84.792969 761.4375 84.730469 C 760.265625 84.667969 758.316406 84.566406 756.753906 84.484375 C 755.191406 84.402344 754.800781 84.382812 753.652344 83.929688 C 752.871094 83.886719 751.722656 83.4375 750.960938 83.003906 C 750.570312 82.984375 749.8125 82.550781 749.441406 82.140625 C 748.679688 81.707031 747.921875 81.277344 747.160156 80.84375 C 746.421875 80.023438 746.050781 79.609375 745.3125 78.789062 C 744.574219 77.964844 744.222656 77.164062 743.464844 76.734375 C 742.375 75.109375 741.675781 73.503906 740.976562 71.898438 C 740.277344 70.296875 739.972656 68.710938 739.664062 67.128906 C 739.335938 65.9375 739.003906 64.742188 738.675781 63.550781 C 738.390625 61.578125 737.730469 59.191406 737.445312 57.21875 C 737.15625 55.242188 736.519531 52.46875 736.253906 50.101562 C 735.984375 47.738281 735.289062 46.132812 735 44.160156 L 734.34375 41.773438 C 734.363281 41.382812 733.972656 41.363281 733.992188 40.972656 L 733.296875 39.367188 C 732.925781 38.957031 732.964844 38.175781 732.597656 37.765625 C 731.878906 36.550781 731.550781 35.359375 730.832031 34.144531 L 730.113281 32.933594 C 729.761719 32.128906 729.023438 31.308594 728.28125 30.484375 C 727.914062 30.074219 727.542969 29.664062 727.175781 29.25 C 726.433594 28.429688 725.695312 27.605469 724.957031 26.785156 C 724.214844 25.960938 723.476562 25.136719 722.347656 24.296875 L 721.214844 23.453125 L 721.605469 23.472656 C 720.085938 22.609375 718.957031 21.765625 717.457031 20.511719 L 715.175781 19.21875 C 714.417969 18.785156 713.65625 18.351562 712.484375 18.292969 C 711.726562 17.859375 710.574219 17.40625 709.792969 17.367188 C 709.015625 17.324219 707.863281 16.875 706.714844 16.421875 C 705.5625 15.96875 704.78125 15.925781 703.609375 15.867188 C 702.441406 15.804688 700.898438 15.332031 699.730469 15.269531 L 696.214844 15.085938 L 692.703125 14.898438 C 691.140625 14.816406 689.167969 15.105469 687.609375 15.023438 L 683.683594 15.210938 C 682.902344 15.167969 682.101562 15.519531 681.320312 15.476562 L 678.546875 16.113281 L 678.9375 16.136719 L 673.804688 17.039062 C 673.023438 17 672.222656 17.347656 671.808594 17.71875 L 669.039062 18.355469 L 665.460938 19.34375 L 662.277344 20.351562 L 658.683594 21.730469 L 654.675781 23.476562 L 650.671875 25.226562 L 647.464844 26.625 C 645.0625 27.675781 643.050781 28.742188 640.625 30.183594 C 635.777344 33.0625 630.949219 35.550781 626.101562 38.429688 L 626.492188 38.449219 C 622.445312 40.980469 618.398438 43.511719 614.351562 46.039062 C 610.304688 48.570312 606.257812 51.101562 602.230469 53.238281 C 598.203125 55.378906 593.355469 58.257812 588.917969 60.765625 C 584.480469 63.273438 580.453125 65.414062 576.035156 67.53125 L 570.019531 70.351562 L 563.585938 73.539062 C 559.171875 75.65625 554.753906 77.773438 550.359375 79.503906 L 546.351562 81.25 C 545.550781 81.601562 544.359375 81.929688 543.558594 82.28125 C 542.757812 82.628906 541.566406 82.957031 540.375 83.289062 L 535.585938 84.996094 C 533.59375 85.671875 531.621094 85.960938 529.628906 86.640625 C 529.238281 86.621094 528.4375 86.96875 528.046875 86.949219 L 525.664062 87.605469 C 524.472656 87.9375 522.910156 87.855469 521.71875 88.183594 C 516.996094 88.71875 512.660156 89.273438 507.957031 89.417969 C 505.613281 89.296875 503.640625 89.582031 501.300781 89.460938 L 493.082031 89.417969 C 488.007812 89.152344 482.914062 89.277344 478.230469 89.03125 C 473.9375 88.804688 469.644531 88.578125 464.960938 88.332031 L 457.152344 87.921875 C 454.8125 87.796875 452.492188 87.285156 450.148438 87.160156 C 448.976562 87.097656 447.828125 86.648438 446.65625 86.585938 C 445.117188 86.113281 443.574219 85.640625 442.035156 85.167969 C 441.273438 84.734375 440.125 84.28125 439.363281 83.851562 L 437.84375 82.988281 C 437.472656 82.574219 436.714844 82.144531 436.34375 81.734375 C 435.972656 81.320312 435.605469 80.910156 434.863281 80.085938 C 434.125 79.265625 433.777344 78.464844 433.035156 77.640625 C 431.597656 75.214844 430.570312 72.417969 429.957031 69.25 C 429.605469 68.449219 429.667969 67.277344 429.320312 66.476562 C 428.988281 65.28125 429.03125 64.5 429.09375 63.328125 C 429.152344 62.15625 428.824219 60.964844 428.90625 59.402344 L 429.011719 57.445312 C 429.03125 57.054688 429.070312 56.273438 429.113281 55.492188 C 429.15625 54.710938 429.214844 53.539062 429.667969 52.386719 C 429.792969 50.042969 430.304688 47.71875 430.820312 45.394531 C 431.414062 41.507812 432.402344 37.644531 432.976562 34.148438 L 433.058594 32.585938 L 433.121094 31.414062 C 433.160156 30.632812 433.203125 29.851562 433.242188 29.066406 C 433.285156 28.285156 433.324219 27.503906 432.976562 26.703125 L 432.957031 27.09375 C 432.996094 26.3125 432.648438 25.511719 432.296875 24.707031 L 432.277344 25.097656 C 431.929688 24.296875 431.578125 23.496094 431.621094 22.714844 C 431.269531 21.914062 430.921875 21.109375 430.574219 20.308594 C 430.222656 19.507812 429.484375 18.683594 428.746094 17.859375 L 427.636719 16.628906 C 426.894531 15.804688 426.136719 15.375 425.394531 14.550781 C 424.65625 13.726562 423.507812 13.277344 422.746094 12.84375 C 421.226562 11.980469 420.074219 11.527344 418.554688 10.664062 C 417.035156 9.800781 414.324219 9.265625 412.394531 8.773438 L 408.140625 7.765625 L 406.578125 7.683594 L 404.238281 7.558594 L 400.332031 7.355469 L 398.773438 7.273438 L 396.429688 7.148438 C 395.648438 7.109375 394.871094 7.066406 394.066406 7.417969 C 392.898438 7.355469 391.316406 7.664062 390.125 7.992188 C 388.933594 8.324219 386.179688 8.570312 384.578125 9.269531 L 381.003906 10.257812 C 380.203125 10.605469 379.011719 10.933594 378.207031 11.285156 L 375.414062 12.3125 L 371.820312 13.691406 C 370.21875 14.390625 368.613281 15.089844 367.011719 15.789062 L 363.808594 17.1875 L 361.382812 18.628906 C 359.761719 19.71875 357.769531 20.394531 356.144531 21.484375 C 354.523438 22.574219 352.921875 23.277344 351.707031 23.996094 L 349.203125 26.996094 C 347.988281 27.71875 347.167969 28.457031 345.957031 29.179688 C 343.53125 30.617188 341.476562 32.46875 339.054688 33.90625 C 334.164062 37.570312 329.683594 40.859375 325.1875 44.539062 L 314.15625 53.363281 C 312.511719 54.84375 310.476562 56.304688 308.855469 57.394531 L 306.410156 59.226562 L 302.773438 61.382812 C 300.761719 62.453125 299.136719 63.542969 297.101562 65.003906 C 296.28125 65.746094 295.089844 66.074219 294.269531 66.8125 L 290.242188 68.953125 C 289.03125 69.671875 288.226562 70.023438 287.015625 70.742188 L 284.203125 72.160156 L 281.796875 73.210938 C 280.585938 73.929688 279.394531 74.257812 278.183594 74.980469 L 274.585938 76.359375 L 271.792969 77.386719 C 270.601562 77.714844 269.800781 78.066406 268.609375 78.394531 L 263.824219 80.101562 C 261.832031 80.78125 259.835938 81.457031 257.476562 81.726562 C 256.675781 82.074219 255.480469 82.40625 254.3125 82.34375 L 250.738281 83.332031 C 245.992188 84.257812 241.226562 85.574219 236.5 86.109375 L 229.390625 87.300781 C 227.03125 87.570312 225.058594 87.855469 222.695312 88.125 C 221.523438 88.0625 220.722656 88.414062 219.550781 88.351562 L 216.800781 88.597656 C 214.847656 88.496094 212.875 88.78125 210.925781 88.679688 C 206.628906 88.453125 202.316406 88.621094 198.023438 88.394531 L 194.902344 88.230469 L 191.386719 88.042969 C 189.4375 87.941406 187.113281 87.429688 185.183594 86.933594 C 183.644531 86.460938 182.101562 85.988281 180.5625 85.515625 C 179.800781 85.085938 179.019531 85.042969 178.261719 84.609375 L 176.351562 83.726562 L 175.589844 83.296875 L 174.109375 81.648438 L 171.460938 79.945312 C 169.941406 79.078125 168.050781 77.804688 166.550781 76.550781 C 165.050781 75.296875 163.550781 74.042969 162.054688 72.789062 L 161.3125 71.964844 L 160.183594 71.121094 C 159.445312 70.300781 158.703125 69.476562 157.964844 68.65625 C 157.226562 67.832031 156.855469 67.421875 156.507812 66.621094 C 155.417969 64.996094 154.71875 63.390625 154.410156 61.808594 C 153.710938 60.203125 153.425781 58.230469 153.117188 56.644531 C 152.808594 55.0625 152.871094 53.890625 152.953125 52.328125 L 153.074219 49.984375 C 153.117188 49.203125 153.136719 48.8125 153.179688 48.03125 C 153.28125 46.074219 153.773438 44.144531 154.246094 42.601562 C 155.234375 38.734375 156.628906 34.496094 157.617188 30.632812 L 158.070312 29.480469 C 158.109375 28.699219 158.542969 27.9375 158.582031 27.15625 L 158.644531 25.984375 L 158.683594 25.203125 L 158.335938 24.402344 L 157.988281 23.597656 L 157.699219 21.625 L 157.328125 21.214844 C 156.960938 20.800781 156.589844 20.390625 156.199219 20.371094 L 155.441406 19.9375 C 154.289062 19.488281 153.527344 19.054688 152.378906 18.601562 L 146.996094 16.75 C 145.847656 16.300781 144.675781 16.238281 143.894531 16.195312 C 143.113281 16.15625 141.574219 15.683594 140.402344 15.621094 L 137.667969 15.476562 C 136.890625 15.4375 135.71875 15.375 134.9375 15.332031 L 132.984375 15.230469 C 129.84375 15.457031 126.308594 15.664062 123.167969 15.890625 C 121.585938 16.199219 120.003906 16.507812 118.421875 16.816406 C 116.839844 17.125 115.257812 17.433594 113.65625 18.132812 C 110.082031 19.121094 106.484375 20.496094 102.910156 21.484375 C 99.335938 22.472656 95.332031 24.21875 91.714844 25.988281 C 87.707031 27.738281 83.683594 29.875 79.675781 31.625 C 75.671875 33.375 72.035156 35.53125 67.988281 38.0625 C 63.550781 40.570312 59.480469 43.492188 55.433594 46.023438 C 51.386719 48.550781 46.949219 51.0625 42.902344 53.589844 C 36.84375 57.191406 30.761719 61.179688 24.679688 65.167969 C 21.847656 66.980469 18.992188 69.179688 16.15625 70.988281 C 13.320312 72.800781 10.484375 74.609375 7.238281 76.789062 C 6.417969 77.53125 5.617188 77.878906 4.796875 78.621094 C 4.382812 78.988281 3.992188 78.96875 3.605469 78.949219 C 3.191406 79.320312 2.824219 78.90625 2.453125 78.496094 Z M 2.453125 78.496094"/></g></g></g></svg>